# xmcd
#
# Track frame offsets:
#	165
#	5873
#	14461
#	31072
#	51943
#	68832
#	80933
#	86894
#	95703
#	102527
#	121041
#	134527
#	162312
#	173527
#	202356
#	216460
#	257395
#	276720
#
# Disc length: 4189 seconds
#
# Revision: 0
# Processed by: cddbd v1.5.1PL0 Copyright (c) Steve Scherf et al.
# Submitted via: audiograbber 1.83.01
#
DISCID=15105b12
DTITLE=Where's Kitty? - There Are Beetles in the Milkcrate
DYEAR=2004
DGENRE=electronica
TTITLE0=aha
TTITLE1=the adventure
TTITLE2=and the intrigue
TTITLE3=birds
TTITLE4=collusion replicant 2
TTITLE5=i am in denial
TTITLE6=i am being documented
TTITLE7=i am being watched
TTITLE8=i am becoming reclusive
TTITLE9=haldd
TTITLE10=an autumn violet
TTITLE11=collusion replicant
TTITLE12=crimefighters
TTITLE13=space cock
TTITLE14=maerse
TTITLE15=latitudes
TTITLE16=frai m l
TTITLE17=haha
EXTD=
EXTT0=
EXTT1=
EXTT2=
EXTT3=
EXTT4=
EXTT5=
EXTT6=
EXTT7=
EXTT8=
EXTT9=
EXTT10=
EXTT11=
EXTT12=
EXTT13=
EXTT14=
EXTT15=
EXTT16=
EXTT17=
PLAYORDER=
